<svg xmlns="http://www.w3.org/2000/svg" fill="none" viewBox="0 0 142 160"><g fill="#fff" filter="url(#a)"><path d="M37.328 130c-1.877 0-3.456-.64-4.736-1.92-1.195-1.28-1.792-2.859-1.792-4.736V36.688c0-1.963.597-3.541 1.792-4.736 1.28-1.28 2.859-1.92 4.736-1.92 2.048 0 3.755.81 5.12 2.432l55.808 74.24V36.688c0-1.963.64-3.541 1.92-4.736 1.28-1.28 2.859-1.92 4.736-1.92 1.963 0 3.541.64 4.736 1.92 1.195 1.195 1.792 2.773 1.792 4.736v86.656c0 1.877-.597 3.456-1.792 4.736-1.195 1.28-2.773 1.92-4.736 1.92-.853 0-1.792-.171-2.816-.512-.939-.427-1.707-1.024-2.304-1.792l-55.808-74.24v69.888c0 1.877-.64 3.456-1.92 4.736-1.195 1.28-2.773 1.92-4.736 1.92Z"/><path d="m32.592 128.08-7.31 6.823.117.126.122.122 7.071-7.071Zm0-96.128-7.071-7.071 7.071 7.071Zm9.856.512 7.993-6.009-.166-.22-.178-.212-7.649 6.441Zm55.808 74.24-7.993 6.009 17.993 23.936v-29.945h-10Zm1.92-74.752 6.823 7.31.126-.117.122-.122-7.071-7.071Zm9.472 0-7.311 6.823.118.126.122.122 7.071-7.071Zm-7.552 97.536-4.138 9.104.478.217.498.166 3.162-9.487Zm-2.304-1.792-7.993 6.009.049.066.05.064 7.894-6.139Zm-55.808-74.24 7.993-6.009-17.993-23.936v29.945h10Zm-1.92 74.624-7.071-7.071-.122.122-.118.126 7.311 6.823ZM37.328 120c.217 0 .645.042 1.165.253.528.214.924.51 1.17.756l-14.142 14.142c3.232 3.232 7.387 4.849 11.807 4.849v-20Zm2.575 1.257c.256.275.519.667.698 1.14.174.461.199.812.199.947h-20c0 4.21 1.427 8.286 4.481 11.559l14.622-13.646Zm.897 2.087V36.688h-20v86.656h20Zm0-86.656c0 .034-.006.373-.2.883a4.18 4.18 0 0 1-.937 1.452L25.521 24.881c-3.374 3.374-4.721 7.656-4.721 11.807h20Zm-1.137 2.335a3.58 3.58 0 0 1-1.17.756c-.52.211-.948.253-1.165.253v-20c-4.42 0-8.575 1.617-11.807 4.849l14.142 14.142Zm-2.335 1.009c-.334 0-.877-.076-1.475-.36-.587-.278-.928-.617-1.054-.767l15.298-12.882c-3.189-3.787-7.655-5.991-12.769-5.991v20Zm-2.873-1.56 55.808 74.241 15.986-12.018-55.808-74.24-15.986 12.018Zm73.801 68.232V36.688h-20v70.016h20Zm0-70.016c0 .113-.021.53-.253 1.101a4.205 4.205 0 0 1-1.004 1.474L93.353 24.64c-3.562 3.325-5.097 7.683-5.097 12.047h20Zm-1.009 2.335a3.573 3.573 0 0 1-1.17.756c-.52.211-.948.253-1.165.253v-20c-4.42 0-8.575 1.617-11.807 4.849l14.142 14.142Zm-2.335 1.009c-.113 0-.529-.02-1.101-.253a4.21 4.21 0 0 1-1.474-1.004l14.622-13.646c-3.325-3.562-7.683-5.097-12.047-5.097v20Zm-2.335-1.009a4.187 4.187 0 0 1-.938-1.452c-.193-.51-.199-.849-.199-.883h20c0-4.151-1.347-8.433-4.721-11.807l-14.142 14.142Zm-1.137-2.335v86.656h20V36.688h-20Zm0 86.656c0-.135.025-.486.199-.947.179-.473.442-.865.698-1.14l14.622 13.646c3.054-3.273 4.481-7.349 4.481-11.559h-20Zm.897-2.087a4.21 4.21 0 0 1 1.474-1.004c.572-.232.988-.253 1.101-.253v20c4.364 0 8.722-1.535 12.047-5.097l-14.622-13.646Zm2.575-1.257c.239 0 .392.024.445.033.052.01.022.008-.099-.032l-6.324 18.974c1.786.595 3.809 1.025 5.978 1.025v-20Zm1.322.384c.444.202.996.587 1.452 1.173l-15.788 12.278c1.65 2.122 3.739 3.702 6.06 4.757l8.276-18.208Zm1.551 1.303-55.808-74.24-15.986 12.018 55.808 74.24 15.986-12.018ZM33.984 53.456v69.888h20V53.456h-20Zm0 69.888c0-.217.042-.645.253-1.165.213-.528.51-.924.756-1.17l14.142 14.142c3.232-3.232 4.849-7.387 4.849-11.807h-20Zm.77-2.087a4.207 4.207 0 0 1 1.473-1.004c.572-.232.988-.253 1.101-.253v20c4.364 0 8.722-1.535 12.047-5.097l-14.622-13.646Z"/></g><defs><filter id="a" width="140.64" height="159.968" x=".8" y=".032" color-interpolation-filters="sRGB" filterUnits="userSpaceOnUse"><feFlood flood-opacity="0" result="BackgroundImageFix"/><feColorMatrix in="SourceAlpha" result="hardAlpha" values="0 0 0 0 0 0 0 0 0 0 0 0 0 0 0 0 0 0 127 0"/><feOffset/><feGaussianBlur stdDeviation="15"/><feComposite in2="hardAlpha" operator="out"/><feColorMatrix values="0 0 0 0 0 0 0 0 0 0 0 0 0 0 0 0 0 0 0.8 0"/><feBlend in2="BackgroundImageFix" result="effect1_dropShadow_8_2"/><feBlend in="SourceGraphic" in2="effect1_dropShadow_8_2" result="shape"/></filter></defs></svg>
