<svg width="582.52" height="110.101" viewBox="0 0 582.52 110.101" xmlns="http://www.w3.org/2000/svg"><g id="svgGroup" stroke-linecap="round" fill-rule="evenodd" font-size="9pt" stroke="#444444" stroke-width="0.25mm" fill="#444444" style="stroke:#444444;stroke-width:0.25mm;fill:#444444"><path d="M 9.473 17.09 L 8.691 18.848 L 8.447 20.508 A 70.378 70.378 0 0 0 8.264 21.849 Q 8.188 22.448 8.112 23.114 A 136.467 136.467 0 0 0 7.959 24.512 Q 7.715 26.855 7.422 29.248 Q 7.22 30.893 7.065 32.192 A 597.773 597.773 0 0 0 6.934 33.301 L 6.934 34.18 Q 6.773 34.903 6.513 36.587 A 142.9 142.9 0 0 0 6.396 37.354 A 2302.509 2302.509 0 0 1 6.042 39.722 A 2758.02 2758.02 0 0 1 5.664 42.236 A 287.956 287.956 0 0 1 5.273 44.751 A 241.584 241.584 0 0 1 4.883 47.119 A 167.148 167.148 0 0 0 4.711 48.148 Q 4.511 49.367 4.426 50.034 A 15.767 15.767 0 0 0 4.395 50.293 A 3.931 3.931 0 0 1 3.913 51.443 A 3.46 3.46 0 0 1 3.271 52.197 A 2.908 2.908 0 0 1 1.342 52.929 A 3.7 3.7 0 0 1 1.27 52.93 A 1.213 1.213 0 0 1 0.944 52.889 A 0.802 0.802 0 0 1 0.439 52.49 Q 0.195 52.051 0.098 51.367 Q 0 50.684 0 50.049 L 0 49.121 A 125.137 125.137 0 0 1 0.275 40.964 A 141.889 141.889 0 0 1 0.488 38.135 Q 0.977 32.422 1.855 26.66 Q 2.734 20.898 4.004 15.234 A 134.043 134.043 0 0 1 6.934 4.297 A 1.33 1.33 0 0 1 7.024 4.008 Q 7.114 3.81 7.265 3.687 A 0.8 0.8 0 0 1 7.373 3.613 A 1.487 1.487 0 0 1 7.967 3.427 A 1.845 1.845 0 0 1 8.154 3.418 L 9.033 3.418 L 9.668 3.418 L 10.107 3.418 L 10.547 3.418 L 11.133 3.418 L 11.279 3.857 A 11.208 11.208 0 0 1 11.407 4.27 Q 11.469 4.482 11.531 4.721 A 19.532 19.532 0 0 1 11.572 4.883 A 56.321 56.321 0 0 0 11.792 5.734 A 49.792 49.792 0 0 0 11.865 6.006 A 5.007 5.007 0 0 1 11.954 6.388 Q 11.99 6.576 12.004 6.741 A 2.378 2.378 0 0 1 12.012 6.934 A 97.688 97.688 0 0 0 12.341 8.362 Q 12.719 9.948 13.252 12.001 A 315.395 315.395 0 0 0 13.77 13.965 Q 14.941 18.359 16.748 23.486 A 155.652 155.652 0 0 0 20.707 33.557 A 169.524 169.524 0 0 0 20.85 33.887 A 68.452 68.452 0 0 0 23.909 40.078 A 56.824 56.824 0 0 0 25.928 43.408 A 37.601 37.601 0 0 0 28.612 47.037 Q 30.127 48.834 31.732 50.205 A 23.117 23.117 0 0 0 31.836 50.293 Q 34.961 52.93 38.379 52.93 Q 40.039 52.93 41.406 51.758 A 9.46 9.46 0 0 0 42.873 50.158 A 12.58 12.58 0 0 0 43.799 48.682 A 22.586 22.586 0 0 0 45.018 45.993 A 27.4 27.4 0 0 0 45.557 44.434 A 77.103 77.103 0 0 0 46.545 41 A 68.139 68.139 0 0 0 46.826 39.893 A 41.612 41.612 0 0 0 47.338 37.513 A 32.516 32.516 0 0 0 47.607 35.791 A 48.955 48.955 0 0 0 47.714 34.897 Q 47.852 33.643 47.852 32.91 A 69.12 69.12 0 0 0 46.24 17.92 A 105.281 105.281 0 0 0 41.895 3.418 A 4.394 4.394 0 0 0 41.283 2.765 Q 40.958 2.478 40.545 2.206 A 8.839 8.839 0 0 0 40.137 1.953 Q 39.24 1.43 38.686 1.078 A 16.576 16.576 0 0 1 38.379 0.879 Q 38.672 0.195 39.16 0.098 A 4.931 4.931 0 0 1 39.74 0.019 A 6.304 6.304 0 0 1 40.234 0 A 3.179 3.179 0 0 1 42.109 0.634 Q 42.894 1.193 43.604 2.246 Q 45.117 4.492 46.338 7.91 A 65.671 65.671 0 0 1 47.701 12.21 A 82.186 82.186 0 0 1 48.535 15.43 Q 49.512 19.531 50.098 23.34 Q 50.645 26.896 50.936 29.77 A 87.784 87.784 0 0 1 50.977 30.176 Q 51.27 33.203 51.27 34.277 A 43.655 43.655 0 0 1 51.152 37.389 Q 51.051 38.79 50.866 40.322 A 72.438 72.438 0 0 1 50.732 41.357 A 29.739 29.739 0 0 1 48.73 48.828 A 17.564 17.564 0 0 1 45.901 53.497 A 16.259 16.259 0 0 1 44.678 54.785 Q 42.09 57.227 37.988 57.227 A 11.095 11.095 0 0 1 31.515 55.132 A 13.806 13.806 0 0 1 31.104 54.834 A 25.685 25.685 0 0 1 27.327 51.309 A 32.46 32.46 0 0 1 25.244 48.682 A 57.671 57.671 0 0 1 21.736 43.097 A 68.504 68.504 0 0 1 20.264 40.283 Q 17.969 35.645 16.016 31.201 A 1104.006 1104.006 0 0 1 14.148 26.929 A 854.474 854.474 0 0 1 12.451 22.998 Q 10.876 19.322 9.533 17.186 A 20.077 20.077 0 0 0 9.473 17.09 Z" id="0" vector-effect="non-scaling-stroke"/><path d="M 76.062 47.021 A 56.58 56.58 0 0 0 77.637 45.215 A 100.156 100.156 0 0 1 78.027 47.058 A 129.317 129.317 0 0 1 78.418 49.072 A 17.655 17.655 0 0 0 78.641 50.101 A 15.179 15.179 0 0 0 79.639 52.93 A 9.786 9.786 0 0 0 81.836 55.957 A 4.583 4.583 0 0 0 83.888 57.048 A 6.465 6.465 0 0 0 85.449 57.227 A 13.027 13.027 0 0 0 87.784 57.012 A 15.806 15.806 0 0 0 90.869 56.104 A 19.011 19.011 0 0 0 95.898 53.125 Q 98.145 51.27 99.609 48.877 A 11.136 11.136 0 0 0 100.317 47.527 A 8.624 8.624 0 0 0 101.074 44.043 L 101.074 43.555 L 101.074 43.262 Q 100.146 43.555 99.39 43.945 A 7.362 7.362 0 0 0 98.047 44.824 Q 96.875 45.801 95.947 46.875 Q 95.02 47.949 94.189 49.023 A 9.855 9.855 0 0 1 92.236 50.928 A 9.916 9.916 0 0 1 91.179 51.607 A 12.429 12.429 0 0 1 89.6 52.344 A 7.157 7.157 0 0 1 88.756 52.609 Q 88.098 52.774 87.32 52.854 A 15.44 15.44 0 0 1 85.742 52.93 Q 84.766 52.93 84.18 52.002 A 7.173 7.173 0 0 1 83.714 51.134 A 8.908 8.908 0 0 1 83.252 49.854 Q 82.91 48.633 82.764 47.412 A 35.555 35.555 0 0 1 82.702 46.862 Q 82.645 46.318 82.626 45.938 A 6.845 6.845 0 0 1 82.617 45.605 Q 82.617 42.969 83.008 40.43 Q 83.398 37.891 83.789 35.303 Q 84.18 32.715 84.57 30.078 Q 84.961 27.441 84.961 24.805 Q 83.452 22.876 81.187 23.035 A 5.643 5.643 0 0 0 80.42 23.145 A 11.69 11.69 0 0 0 78.993 23.545 Q 76.806 24.305 74.316 26.025 Q 70.996 28.32 67.676 31.787 Q 64.355 35.254 61.621 38.965 A 58.99 58.99 0 0 0 59.143 42.59 A 43.738 43.738 0 0 0 57.178 46.045 A 28.219 28.219 0 0 0 56.822 46.772 Q 55.469 49.64 55.469 51.465 A 7.86 7.86 0 0 0 55.561 52.705 Q 56.159 56.445 60.645 56.445 A 11.484 11.484 0 0 0 65.576 55.322 Q 67.969 54.199 70.166 52.539 A 36.181 36.181 0 0 0 74.268 48.926 A 73.635 73.635 0 0 0 76.062 47.021 Z M 80.161 28.257 A 2.165 2.165 0 0 0 80.127 28.027 Q 79.903 26.95 78.894 27.069 A 2.121 2.121 0 0 0 78.711 27.1 Q 77.732 27.304 76.277 28.325 A 18.404 18.404 0 0 0 75.684 28.76 A 45.208 45.208 0 0 0 73.817 30.269 Q 72.787 31.145 71.68 32.178 A 59.893 59.893 0 0 0 68.591 35.283 A 69.803 69.803 0 0 0 67.383 36.621 Q 65.234 39.063 63.379 41.26 A 59.265 59.265 0 0 0 62.083 42.846 Q 61.459 43.64 60.938 44.367 A 31.015 31.015 0 0 0 60.352 45.215 A 37.27 37.27 0 0 0 59.835 46.009 Q 59.109 47.162 58.887 47.754 A 12.629 12.629 0 0 0 58.696 48.595 Q 58.387 50.23 58.74 51.172 A 3.557 3.557 0 0 0 59.119 51.92 A 2.448 2.448 0 0 0 60.107 52.783 A 2.731 2.731 0 0 0 61.291 53.047 Q 61.591 53.047 61.908 52.986 A 3.874 3.874 0 0 0 62.158 52.93 Q 63.281 52.637 64.063 52.051 A 65.021 65.021 0 0 0 64.948 51.254 Q 66.159 50.145 67.736 48.61 A 204.144 204.144 0 0 0 68.262 48.096 Q 70.801 45.605 73.193 42.773 A 53.864 53.864 0 0 0 76.06 39.077 A 45.071 45.071 0 0 0 77.344 37.158 Q 79.04 34.472 79.372 32.559 A 6.051 6.051 0 0 0 79.395 32.422 Q 80.283 29.491 80.161 28.257 Z" id="1" vector-effect="non-scaling-stroke"/><path d="M 102.832 54.102 L 102.832 53.809 Q 103.809 49.902 104.248 46.729 A 70.01 70.01 0 0 0 104.825 40.717 A 64.527 64.527 0 0 0 104.834 40.527 A 96.189 96.189 0 0 0 104.942 36.428 Q 104.948 35.321 104.932 34.18 A 427.422 427.422 0 0 1 104.897 30.874 Q 104.885 29.139 104.883 27.214 A 707.704 707.704 0 0 1 104.883 26.66 Q 103.32 26.66 102.588 26.855 A 5.723 5.723 0 0 0 102.23 26.963 Q 101.884 27.08 101.677 27.212 A 1.123 1.123 0 0 0 101.563 27.295 A 1.492 1.492 0 0 0 101.357 27.501 Q 101.234 27.653 101.176 27.821 A 0.952 0.952 0 0 0 101.172 27.832 A 1.314 1.314 0 0 1 100.936 28.252 A 1.614 1.614 0 0 1 100.83 28.369 A 0.988 0.988 0 0 1 100.649 28.508 Q 100.453 28.629 100.134 28.737 A 5.143 5.143 0 0 1 99.902 28.809 A 3.718 3.718 0 0 1 99.456 28.903 Q 98.807 29.004 97.754 29.004 Q 96.875 29.004 96.484 28.32 Q 96.094 27.637 96.094 26.758 Q 96.094 26.025 96.996 25.206 A 5.802 5.802 0 0 1 97.119 25.098 Q 98.145 24.219 99.561 23.34 A 17.585 17.585 0 0 1 102.49 21.875 Q 103.538 21.469 104.375 21.345 A 4.777 4.777 0 0 1 105.078 21.289 A 1.286 1.286 0 0 1 105.325 21.316 Q 105.586 21.368 105.945 21.517 A 6.754 6.754 0 0 1 106.201 21.631 A 7.161 7.161 0 0 1 107.44 22.375 A 8.079 8.079 0 0 1 107.617 22.51 A 6.902 6.902 0 0 1 108.275 23.094 A 5.329 5.329 0 0 1 108.74 23.633 Q 109.154 24.185 109.178 24.737 A 1.564 1.564 0 0 1 109.18 24.805 L 109.18 38.379 A 22.302 22.302 0 0 1 109.741 37.579 Q 110.396 36.686 111.362 35.506 A 92.789 92.789 0 0 1 112.305 34.375 A 60.226 60.226 0 0 1 115.802 30.594 A 68.641 68.641 0 0 1 117.09 29.346 A 44.639 44.639 0 0 1 121.058 25.999 A 38.908 38.908 0 0 1 122.461 25 A 14.542 14.542 0 0 1 124.11 24.023 Q 124.974 23.591 125.771 23.371 A 5.92 5.92 0 0 1 127.344 23.145 A 7.032 7.032 0 0 1 128.853 23.295 Q 129.783 23.5 130.456 23.982 A 3.646 3.646 0 0 1 131.445 25.049 A 7.573 7.573 0 0 1 132.377 27.409 Q 132.587 28.365 132.613 29.467 A 13.314 13.314 0 0 1 132.617 29.785 Q 131.445 29.785 130.762 29.395 Q 130.078 29.004 129.541 28.516 A 6.752 6.752 0 0 0 128.582 27.785 A 6.152 6.152 0 0 0 128.418 27.686 Q 127.959 27.418 127.261 27.36 A 4.897 4.897 0 0 0 126.855 27.344 Q 123.73 27.93 120.996 30.469 A 32.518 32.518 0 0 0 117.142 34.772 A 37.977 37.977 0 0 0 115.967 36.426 A 55.986 55.986 0 0 0 111.865 43.652 A 294.662 294.662 0 0 0 110.168 47.29 A 214.631 214.631 0 0 0 108.691 50.586 Q 107.468 53.381 106.675 55.239 A 275.494 275.494 0 0 0 106.494 55.664 Q 105.7 57.533 105.487 57.256 A 0.18 0.18 0 0 1 105.469 57.227 A 2.094 2.094 0 0 1 104.291 56.855 Q 103.997 56.66 103.719 56.362 A 4.155 4.155 0 0 1 103.662 56.299 Q 102.832 55.371 102.832 54.102 Z" id="2" vector-effect="non-scaling-stroke"/><path d="M 139.551 43.555 L 137.207 44.922 Q 136.523 45.313 136.133 45.117 A 1.052 1.052 0 0 1 135.596 44.531 Q 135.449 44.141 135.4 43.604 Q 135.358 43.139 135.352 42.93 A 2.177 2.177 0 0 1 135.352 42.871 A 12.213 12.213 0 0 1 135.372 42.14 Q 135.451 40.829 135.84 40.479 A 2.285 2.285 0 0 1 136.544 40.052 A 3.136 3.136 0 0 1 137.109 39.893 A 11.511 11.511 0 0 0 138.072 39.667 A 14.486 14.486 0 0 0 138.77 39.453 Q 139.648 39.16 140.43 37.598 Q 141.602 35.156 142.529 32.471 A 28.272 28.272 0 0 1 144.824 27.441 A 11.997 11.997 0 0 1 147.622 24.137 A 11.419 11.419 0 0 1 148.291 23.633 Q 150.391 22.168 154.102 22.168 Q 154.688 22.168 155.42 22.266 A 6.198 6.198 0 0 1 156.464 22.495 A 5.51 5.51 0 0 1 156.787 22.607 Q 157.422 22.852 157.861 23.389 Q 158.301 23.926 158.301 24.805 A 6.998 6.998 0 0 1 157.903 27.19 A 6.415 6.415 0 0 1 157.275 28.467 Q 156.25 30.078 154.736 31.396 A 31.991 31.991 0 0 1 151.465 33.887 Q 149.707 35.059 148.242 36.133 A 17.007 17.007 0 0 0 146.733 37.372 A 13.491 13.491 0 0 0 145.752 38.379 A 4.427 4.427 0 0 0 145.06 39.422 A 3.503 3.503 0 0 0 144.727 40.918 L 144.727 50.293 A 2.234 2.234 0 0 0 144.88 51.135 Q 145.082 51.636 145.549 51.996 A 2.551 2.551 0 0 0 145.557 52.002 A 6.918 6.918 0 0 0 147.051 52.865 A 8.053 8.053 0 0 0 147.461 53.027 A 12.636 12.636 0 0 0 149.707 53.613 Q 150.654 53.771 151.219 53.801 A 4.624 4.624 0 0 0 151.465 53.809 A 13.895 13.895 0 0 0 155.933 53.055 A 15.679 15.679 0 0 0 156.152 52.979 A 27.241 27.241 0 0 0 160.693 50.879 A 36.9 36.9 0 0 0 164.844 48.096 A 2934.5 2934.5 0 0 0 166.748 46.619 A 2510.996 2510.996 0 0 0 168.555 45.215 A 7.938 7.938 0 0 0 169.321 44.488 A 6.911 6.911 0 0 0 169.58 44.189 A 28.734 28.734 0 0 1 170.445 43.179 A 26.283 26.283 0 0 1 170.459 43.164 A 4.719 4.719 0 0 1 171.436 42.334 A 3.248 3.248 0 0 1 171.928 42.08 Q 172.33 41.913 172.852 41.797 L 172.852 42.188 L 172.852 42.676 A 7.058 7.058 0 0 1 172.824 43.322 Q 172.787 43.713 172.705 44.043 Q 172.583 44.531 172.156 45.019 A 4.023 4.023 0 0 1 171.973 45.215 Q 169.824 47.656 167.383 49.805 A 36.49 36.49 0 0 1 162.207 53.613 A 27.093 27.093 0 0 1 156.445 56.25 A 20.57 20.57 0 0 1 150.848 57.211 A 23.43 23.43 0 0 1 150 57.227 A 19.263 19.263 0 0 1 148.039 57.134 Q 146.009 56.925 144.727 56.25 A 6.902 6.902 0 0 1 141.846 53.418 A 11.61 11.61 0 0 1 140.893 51.114 A 15.617 15.617 0 0 1 140.43 49.023 Q 140.039 46.484 139.551 43.555 Z M 149.53 29.788 A 1.81 1.81 0 0 0 149.463 29.834 A 6.991 6.991 0 0 0 149.193 30.038 Q 149.045 30.155 148.882 30.294 A 13.974 13.974 0 0 0 148.682 30.469 Q 148.371 30.745 148.182 30.997 A 1.983 1.983 0 0 0 148.047 31.201 A 1.526 1.526 0 0 0 148.014 31.262 Q 147.87 31.543 148.047 31.543 Q 148.472 31.628 149.046 31.12 A 3.922 3.922 0 0 0 149.219 30.957 Q 149.902 30.273 149.805 29.785 Q 149.805 29.61 149.53 29.788 Z" id="3" vector-effect="non-scaling-stroke"/><path d="M 175.586 1.66 L 175.781 1.66 L 175.879 1.66 L 175.977 1.66 A 2.492 2.492 0 0 1 176.291 1.678 Q 176.631 1.722 176.816 1.868 A 0.585 0.585 0 0 1 176.904 1.953 A 1.547 1.547 0 0 1 177.152 2.377 A 2.031 2.031 0 0 1 177.246 2.686 Q 177.344 3.125 177.344 3.662 L 177.344 4.59 Q 177.344 5.684 177.301 6.565 A 28.77 28.77 0 0 1 177.295 6.689 A 40.532 40.532 0 0 1 177.151 8.563 A 45.39 45.39 0 0 1 177.148 8.594 A 22.597 22.597 0 0 1 176.903 10.34 A 24.808 24.808 0 0 1 176.855 10.596 A 87.993 87.993 0 0 0 176.66 11.658 A 106.828 106.828 0 0 0 176.465 12.793 Q 176.371 14.015 176.322 16.595 A 193.817 193.817 0 0 0 176.318 16.797 Q 176.273 19.35 176.185 22.541 A 833.821 833.821 0 0 1 176.172 22.998 A 2786.06 2786.06 0 0 0 176.025 28.391 A 3203.235 3203.235 0 0 0 175.977 30.273 A 2681.609 2681.609 0 0 1 175.879 33.984 A 2280.316 2280.316 0 0 1 175.781 37.5 Q 175.684 40.918 175.635 43.701 A 562.685 562.685 0 0 0 175.613 44.998 Q 175.587 46.712 175.586 47.657 A 70.65 70.65 0 0 0 175.586 47.754 L 175.586 48.535 L 175.586 49.512 A 122.376 122.376 0 0 0 178.39 44.171 A 99.863 99.863 0 0 0 179.834 41.113 A 1892.551 1892.551 0 0 1 183.447 33.154 A 127.948 127.948 0 0 1 187.402 25.244 Q 189.551 21.289 192.578 17.09 A 9.611 9.611 0 0 1 193.011 16.552 Q 193.365 16.144 193.701 15.869 A 4.693 4.693 0 0 1 194.498 15.338 A 4.143 4.143 0 0 1 194.824 15.186 A 3.81 3.81 0 0 1 195.635 14.953 A 4.79 4.79 0 0 1 196.143 14.893 A 19.31 19.31 0 0 1 196.74 14.863 Q 197.009 14.853 197.311 14.849 A 40.537 40.537 0 0 1 197.949 14.844 A 10.558 10.558 0 0 1 197.676 17.281 A 9.254 9.254 0 0 1 197.314 18.457 A 17.952 17.952 0 0 1 195.908 21.319 A 20.169 20.169 0 0 1 195.654 21.729 A 139.69 139.69 0 0 1 193.506 25 A 30.894 30.894 0 0 0 191.904 27.655 A 35.193 35.193 0 0 0 191.406 28.613 A 23.377 23.377 0 0 0 190.3 31.226 A 28.498 28.498 0 0 0 189.746 32.959 A 17.198 17.198 0 0 0 189.213 35.68 A 23.165 23.165 0 0 0 189.062 38.379 A 50.547 50.547 0 0 0 189.099 40.344 A 38.669 38.669 0 0 0 189.209 42.139 A 9.726 9.726 0 0 0 189.496 43.821 A 7.64 7.64 0 0 0 189.99 45.166 A 4.366 4.366 0 0 0 191.895 47.168 A 4.805 4.805 0 0 0 192.946 47.571 Q 193.973 47.843 195.414 47.851 A 15.85 15.85 0 0 0 195.508 47.852 A 18.51 18.51 0 0 0 197.334 47.766 Q 198.283 47.672 199.116 47.474 A 11.44 11.44 0 0 0 199.17 47.461 A 12.7 12.7 0 0 0 201.759 46.537 A 11.641 11.641 0 0 0 202.148 46.338 A 24.565 24.565 0 0 0 204.37 44.987 A 27.754 27.754 0 0 0 204.883 44.629 A 37.806 37.806 0 0 1 206.706 43.408 A 46.367 46.367 0 0 1 207.91 42.676 Q 208.105 42.676 208.398 43.018 A 16.472 16.472 0 0 0 208.539 43.179 Q 208.712 43.376 208.844 43.512 A 4.87 4.87 0 0 0 208.887 43.555 L 208.887 43.75 L 208.887 43.848 Q 208.887 43.925 208.948 43.941 A 0.144 0.144 0 0 0 208.984 43.945 A 0.416 0.416 0 0 1 208.956 44.095 A 0.51 0.51 0 0 1 208.936 44.141 Q 208.891 44.229 208.887 44.397 A 1.452 1.452 0 0 0 208.887 44.434 A 31.635 31.635 0 0 1 205.194 48.126 A 26.529 26.529 0 0 1 202.832 49.902 Q 199.609 52.051 195.215 52.051 A 15.014 15.014 0 0 1 193.339 51.941 Q 191.428 51.7 190.186 50.928 Q 188.379 49.805 187.354 47.998 Q 186.328 46.191 185.645 43.848 Q 184.961 41.504 184.082 39.16 A 6.892 6.892 0 0 0 183.711 39.795 Q 183.356 40.477 182.984 41.465 A 25.884 25.884 0 0 0 182.861 41.797 A 107.225 107.225 0 0 1 182.19 43.604 A 128.029 128.029 0 0 1 181.445 45.508 A 176.879 176.879 0 0 0 180.078 49.038 A 194.241 194.241 0 0 0 179.883 49.561 A 26.225 26.225 0 0 1 178.942 51.784 A 20.896 20.896 0 0 1 178.125 53.32 Q 177.148 54.98 176.074 56.104 A 4.556 4.556 0 0 1 175.376 56.708 Q 174.625 57.227 173.828 57.227 A 4.382 4.382 0 0 1 173.095 57.167 A 3.905 3.905 0 0 1 172.9 57.129 A 0.756 0.756 0 0 1 172.545 56.933 Q 172.343 56.743 172.184 56.383 A 2.953 2.953 0 0 1 172.168 56.348 L 172.168 54.834 A 49.09 49.09 0 0 0 172.149 53.495 A 59.971 59.971 0 0 0 172.119 52.637 A 57.096 57.096 0 0 1 172.077 51.229 A 46.619 46.619 0 0 1 172.07 50.439 L 172.07 49.023 A 360.277 360.277 0 0 1 172.656 28.369 A 239.226 239.226 0 0 0 173.047 14.654 A 247.58 247.58 0 0 0 172.949 7.715 A 19.611 19.611 0 0 1 173.007 7.544 Q 173.108 7.251 173.291 6.738 A 64.481 64.481 0 0 0 173.531 6.055 Q 173.672 5.643 173.828 5.176 A 96.047 96.047 0 0 1 174.075 4.444 Q 174.19 4.109 174.296 3.809 A 56.643 56.643 0 0 1 174.365 3.613 A 128.138 128.138 0 0 0 174.478 3.296 Q 174.617 2.903 174.691 2.686 A 14.446 14.446 0 0 0 174.707 2.637 A 1.027 1.027 0 0 1 174.782 2.512 Q 174.867 2.39 175.011 2.238 A 4.411 4.411 0 0 1 175.098 2.148 L 175.586 1.66 Z" id="4" vector-effect="non-scaling-stroke"/><path d="M 284.668 40.234 L 283.789 39.355 A 278.813 278.813 0 0 1 271.424 48.642 A 255.087 255.087 0 0 1 270.605 49.219 A 93.041 93.041 0 0 1 256.543 57.324 Q 255.762 57.129 255.078 57.227 A 6.04 6.04 0 0 0 253.76 57.568 A 12.832 12.832 0 0 1 252.841 57.881 A 15.1 15.1 0 0 1 252.393 58.008 A 5.773 5.773 0 0 1 251.419 58.183 A 4.969 4.969 0 0 1 250.977 58.203 Q 249.023 58.203 247.217 57.422 Q 245.41 56.641 244.043 55.322 A 9.708 9.708 0 0 1 241.895 52.246 A 9.036 9.036 0 0 1 241.113 48.535 Q 241.113 42.676 243.604 37.158 A 59.398 59.398 0 0 1 249.756 26.611 A 89.56 89.56 0 0 1 257.813 17.041 A 3904.715 3904.715 0 0 1 262.036 12.683 A 3015.158 3015.158 0 0 1 265.918 8.691 L 263.281 6.934 L 264.16 6.152 Q 265.57 6.216 266.812 6.007 A 9.946 9.946 0 0 0 268.066 5.713 A 31.205 31.205 0 0 0 270.794 4.743 A 27.93 27.93 0 0 0 271.387 4.492 Q 272.949 3.809 274.561 3.223 A 9.736 9.736 0 0 1 276.923 2.695 A 12.017 12.017 0 0 1 278.125 2.637 L 279.297 2.637 A 3.98 3.98 0 0 1 279.782 2.665 Q 280.038 2.696 280.26 2.763 A 2.366 2.366 0 0 1 280.322 2.783 Q 280.762 2.93 281.006 3.32 Q 281.25 3.711 281.25 4.395 A 0.297 0.297 0 0 1 281.186 4.548 Q 280.966 4.867 279.998 5.584 A 26.862 26.862 0 0 1 279.688 5.811 A 214.841 214.841 0 0 1 278.842 6.415 Q 277.478 7.385 275.537 8.74 Q 272.949 10.547 269.629 12.988 A 98.961 98.961 0 0 0 264.994 16.622 A 116.728 116.728 0 0 0 262.842 18.457 A 96.937 96.937 0 0 0 256.104 24.951 A 64.442 64.442 0 0 0 250.195 32.178 A 35.962 35.962 0 0 0 245.996 40.039 Q 244.434 44.141 244.434 48.34 Q 244.434 50 245.117 51.025 Q 245.801 52.051 246.826 52.734 Q 247.852 53.418 249.17 53.662 A 14.229 14.229 0 0 0 251.678 53.906 A 13.228 13.228 0 0 0 251.758 53.906 A 18.469 18.469 0 0 0 256.927 53.135 A 24.993 24.993 0 0 0 260.742 51.66 Q 265.43 49.414 269.824 46.191 Q 274.219 42.969 278.076 39.258 A 170.397 170.397 0 0 0 281.236 36.142 Q 282.657 34.702 283.877 33.384 A 94.606 94.606 0 0 0 284.668 32.52 A 3.614 3.614 0 0 0 285.032 32.098 Q 285.208 31.858 285.31 31.617 A 1.837 1.837 0 0 0 285.4 31.348 Q 285.547 30.762 285.547 29.98 A 2.025 2.025 0 0 0 285.541 29.827 Q 285.535 29.754 285.524 29.67 A 4.617 4.617 0 0 0 285.498 29.492 L 285.449 29.199 A 72.423 72.423 0 0 0 281.94 29.989 A 60.202 60.202 0 0 0 279.98 30.518 Q 277.441 31.25 274.951 32.08 A 107.772 107.772 0 0 0 270.068 33.838 Q 267.676 34.766 265.039 35.938 L 264.844 35.938 A 0.065 0.065 0 0 1 264.808 35.994 Q 264.753 36.028 264.609 36.034 A 1.495 1.495 0 0 1 264.551 36.035 Q 263.77 36.035 263.477 35.449 A 2.822 2.822 0 0 1 263.24 34.79 A 2.393 2.393 0 0 1 263.184 34.277 A 1.686 1.686 0 0 1 263.428 33.433 Q 263.744 32.883 264.468 32.321 A 7.827 7.827 0 0 1 264.795 32.08 A 19.076 19.076 0 0 1 266.778 30.878 A 24.849 24.849 0 0 1 268.555 30.029 Q 270.703 29.102 272.852 28.418 Q 274.995 27.736 276.069 27.443 A 69.156 69.156 0 0 1 276.074 27.441 Q 276.348 27.35 277.605 27.002 A 245.723 245.723 0 0 1 277.783 26.953 A 574.585 574.585 0 0 0 279.236 26.55 A 667.351 667.351 0 0 0 280.762 26.123 A 115.806 115.806 0 0 1 282.275 25.708 A 93.708 93.708 0 0 1 283.691 25.342 L 285.449 24.902 Q 286.23 24.707 286.816 24.268 L 287.988 23.389 A 12.478 12.478 0 0 1 288.94 22.739 A 11.137 11.137 0 0 1 289.16 22.607 Q 289.746 22.266 290.625 22.266 A 4.382 4.382 0 0 1 291.358 22.325 A 3.905 3.905 0 0 1 291.553 22.363 A 0.756 0.756 0 0 1 291.908 22.56 Q 292.11 22.749 292.27 23.109 A 2.953 2.953 0 0 1 292.285 23.145 L 307.617 23.145 A 0.432 0.432 0 0 1 307.669 23.149 Q 307.763 23.16 307.964 23.208 A 10.819 10.819 0 0 1 308.105 23.242 A 10.434 10.434 0 0 1 308.606 23.381 A 12.861 12.861 0 0 1 308.936 23.486 Q 309.272 23.598 309.523 23.711 A 3.759 3.759 0 0 1 309.668 23.779 Q 309.945 23.918 310.134 23.925 A 0.543 0.543 0 0 0 310.156 23.926 Q 310.156 24.023 310.254 24.121 L 310.254 24.268 L 310.254 24.414 L 310.254 24.561 L 310.254 24.707 Q 310.156 24.805 310.156 24.902 A 1.027 1.027 0 0 1 310.081 25.027 Q 309.996 25.15 309.853 25.301 A 4.411 4.411 0 0 1 309.766 25.391 Q 309.539 25.618 309.429 25.669 A 0.135 0.135 0 0 1 309.376 25.684 A 13.088 13.088 0 0 0 308.92 25.693 Q 308.224 25.717 307.067 25.808 A 97.214 97.214 0 0 0 306.787 25.83 Q 304.98 25.977 302.93 26.123 A 246.371 246.371 0 0 1 300.94 26.257 A 203.402 203.402 0 0 1 299.072 26.367 A 85.329 85.329 0 0 0 298.263 26.414 Q 297.304 26.475 296.784 26.536 A 8.134 8.134 0 0 0 296.582 26.563 A 18.106 18.106 0 0 0 295.335 26.774 Q 294.12 27.028 293.329 27.408 A 5.034 5.034 0 0 0 293.262 27.441 A 2.813 2.813 0 0 0 292.364 28.175 Q 292.066 28.532 291.814 29.019 A 7.493 7.493 0 0 0 291.406 29.98 Q 290.332 33.594 289.746 36.67 Q 289.16 39.746 288.916 42.676 A 72.091 72.091 0 0 0 288.676 47.952 A 79.067 79.067 0 0 0 288.672 48.73 L 288.672 55.566 L 288.672 57.91 A 138.794 138.794 0 0 0 288.699 60.629 A 156.441 156.441 0 0 0 288.721 61.572 A 1051.526 1051.526 0 0 0 288.77 63.416 A 856.247 856.247 0 0 0 288.818 65.137 A 217.956 217.956 0 0 1 288.84 65.906 Q 288.864 66.856 288.867 67.366 A 22.55 22.55 0 0 1 288.867 67.48 A 8.177 8.177 0 0 0 288.933 67.822 Q 289.061 68.427 289.355 69.531 A 525.113 525.113 0 0 0 289.758 71.033 A 607.187 607.187 0 0 0 290.186 72.607 A 48.497 48.497 0 0 1 290.721 74.754 A 40.985 40.985 0 0 1 290.918 75.684 A 46.234 46.234 0 0 0 291.058 76.361 Q 291.26 77.295 291.406 77.734 A 0.608 0.608 0 0 1 291.446 77.85 Q 291.515 78.11 291.553 78.76 Q 291.595 79.478 291.601 79.794 A 4.97 4.97 0 0 1 291.602 79.883 A 3.575 3.575 0 0 1 288.987 78.783 A 4.6 4.6 0 0 1 288.916 78.711 A 8.462 8.462 0 0 1 287.819 77.273 Q 287.392 76.576 287.035 75.738 A 13.921 13.921 0 0 1 287.012 75.684 A 19.55 19.55 0 0 1 286.134 73.08 A 23.779 23.779 0 0 1 285.791 71.582 A 55.872 55.872 0 0 1 285.139 67.456 A 51.359 51.359 0 0 1 285.107 67.188 A 79.809 79.809 0 0 1 284.9 65.137 A 58.665 58.665 0 0 1 284.766 63.281 Q 284.691 61.935 284.673 61.105 A 22.004 22.004 0 0 1 284.668 60.645 Q 284.578 59.565 284.53 57.037 A 198.735 198.735 0 0 1 284.521 56.592 A 330.821 330.821 0 0 1 284.485 53.613 A 400.204 400.204 0 0 1 284.473 50.439 A 400.204 400.204 0 0 1 284.485 47.266 A 330.821 330.821 0 0 1 284.521 44.287 Q 284.57 41.406 284.668 40.234 Z" id="6" vector-effect="non-scaling-stroke"/><path d="M 306.25 54.102 L 306.25 53.809 Q 307.227 49.902 307.666 46.729 A 70.01 70.01 0 0 0 308.243 40.717 A 64.527 64.527 0 0 0 308.252 40.527 A 96.189 96.189 0 0 0 308.36 36.428 Q 308.366 35.321 308.35 34.18 A 427.422 427.422 0 0 1 308.315 30.874 Q 308.303 29.139 308.301 27.214 A 707.704 707.704 0 0 1 308.301 26.66 Q 306.738 26.66 306.006 26.855 A 5.723 5.723 0 0 0 305.648 26.963 Q 305.302 27.08 305.095 27.212 A 1.123 1.123 0 0 0 304.98 27.295 A 1.492 1.492 0 0 0 304.775 27.501 Q 304.652 27.653 304.594 27.821 A 0.952 0.952 0 0 0 304.59 27.832 A 1.314 1.314 0 0 1 304.354 28.252 A 1.614 1.614 0 0 1 304.248 28.369 A 0.988 0.988 0 0 1 304.067 28.508 Q 303.871 28.629 303.552 28.737 A 5.143 5.143 0 0 1 303.32 28.809 A 3.718 3.718 0 0 1 302.874 28.903 Q 302.225 29.004 301.172 29.004 Q 300.293 29.004 299.902 28.32 Q 299.512 27.637 299.512 26.758 Q 299.512 26.025 300.414 25.206 A 5.802 5.802 0 0 1 300.537 25.098 Q 301.563 24.219 302.979 23.34 A 17.585 17.585 0 0 1 305.908 21.875 Q 306.956 21.469 307.793 21.345 A 4.777 4.777 0 0 1 308.496 21.289 A 1.286 1.286 0 0 1 308.743 21.316 Q 309.004 21.368 309.363 21.517 A 6.754 6.754 0 0 1 309.619 21.631 A 7.161 7.161 0 0 1 310.858 22.375 A 8.079 8.079 0 0 1 311.035 22.51 A 6.902 6.902 0 0 1 311.693 23.094 A 5.329 5.329 0 0 1 312.158 23.633 Q 312.572 24.185 312.596 24.737 A 1.564 1.564 0 0 1 312.598 24.805 L 312.598 38.379 A 22.302 22.302 0 0 1 313.159 37.579 Q 313.814 36.686 314.78 35.506 A 92.789 92.789 0 0 1 315.723 34.375 A 60.226 60.226 0 0 1 319.22 30.594 A 68.641 68.641 0 0 1 320.508 29.346 A 44.639 44.639 0 0 1 324.475 25.999 A 38.908 38.908 0 0 1 325.879 25 A 14.542 14.542 0 0 1 327.528 24.023 Q 328.392 23.591 329.189 23.371 A 5.92 5.92 0 0 1 330.762 23.145 A 7.032 7.032 0 0 1 332.271 23.295 Q 333.201 23.5 333.874 23.982 A 3.646 3.646 0 0 1 334.863 25.049 A 7.573 7.573 0 0 1 335.795 27.409 Q 336.005 28.365 336.031 29.467 A 13.314 13.314 0 0 1 336.035 29.785 Q 334.863 29.785 334.18 29.395 Q 333.496 29.004 332.959 28.516 A 6.752 6.752 0 0 0 332 27.785 A 6.152 6.152 0 0 0 331.836 27.686 Q 331.377 27.418 330.679 27.36 A 4.897 4.897 0 0 0 330.273 27.344 Q 327.148 27.93 324.414 30.469 A 32.518 32.518 0 0 0 320.56 34.772 A 37.977 37.977 0 0 0 319.385 36.426 A 55.986 55.986 0 0 0 315.283 43.652 A 294.662 294.662 0 0 0 313.586 47.29 A 214.631 214.631 0 0 0 312.109 50.586 Q 310.886 53.381 310.093 55.239 A 275.494 275.494 0 0 0 309.912 55.664 Q 309.118 57.533 308.905 57.256 A 0.18 0.18 0 0 1 308.887 57.227 A 2.094 2.094 0 0 1 307.709 56.855 Q 307.415 56.66 307.137 56.362 A 4.155 4.155 0 0 1 307.08 56.299 Q 306.25 55.371 306.25 54.102 Z" id="7" vector-effect="non-scaling-stroke"/><path d="M 342.48 23.438 L 341.992 23.438 A 2.811 2.811 0 0 1 341.168 23.327 Q 339.941 22.951 339.941 21.289 A 0.858 0.858 0 0 1 340.024 20.953 Q 340.271 20.386 341.26 19.434 A 18.328 18.328 0 0 1 343.079 17.904 A 22.36 22.36 0 0 1 344.336 17.041 A 53.749 53.749 0 0 1 346.252 15.87 A 41.958 41.958 0 0 1 347.656 15.088 Q 349.002 14.373 349.551 14.491 A 0.51 0.51 0 0 1 349.707 14.551 Q 349.902 14.551 350.293 14.893 A 8.239 8.239 0 0 1 350.781 15.358 A 9.937 9.937 0 0 1 351.074 15.674 A 155.916 155.916 0 0 1 351.453 16.101 A 129.342 129.342 0 0 1 351.807 16.504 A 7.749 7.749 0 0 1 351.962 16.687 Q 352.172 16.942 352.245 17.088 A 0.818 0.818 0 0 1 352.246 17.09 L 352.246 17.871 A 15.899 15.899 0 0 0 352.258 18.481 A 20.109 20.109 0 0 0 352.295 19.141 A 18.923 18.923 0 0 1 352.342 20.219 A 16.867 16.867 0 0 1 352.344 20.459 L 352.344 21.387 Q 352.344 24.219 351.953 27.002 A 118.606 118.606 0 0 1 351.025 32.617 A 113.959 113.959 0 0 0 350.098 38.281 Q 349.707 41.113 349.707 43.945 Q 349.707 44.434 349.805 45.898 A 20.044 20.044 0 0 0 350.115 48.295 A 22.862 22.862 0 0 0 350.244 48.926 A 10.959 10.959 0 0 0 350.766 50.65 A 8.978 8.978 0 0 0 351.27 51.709 A 2.977 2.977 0 0 0 351.718 52.326 A 1.884 1.884 0 0 0 353.125 52.93 Q 355.469 52.93 356.641 52.295 A 11.649 11.649 0 0 0 357.991 51.444 A 9.67 9.67 0 0 0 358.691 50.879 Q 359.57 50.098 360.596 49.463 A 3.68 3.68 0 0 1 361.523 49.064 Q 362.346 48.828 363.477 48.828 A 8.812 8.812 0 0 1 363.087 51.521 A 6.82 6.82 0 0 1 360.449 55.078 Q 357.544 57.14 353.109 57.223 A 20.022 20.022 0 0 1 352.734 57.227 A 6.067 6.067 0 0 1 351.226 57.05 A 4.052 4.052 0 0 1 349.023 55.664 A 9.913 9.913 0 0 1 347.552 53.153 A 12.275 12.275 0 0 1 347.119 51.904 A 19.178 19.178 0 0 1 346.387 47.363 A 148.772 148.772 0 0 1 346.344 46.24 Q 346.291 44.681 346.289 43.533 A 50.776 50.776 0 0 1 346.289 43.457 A 43.007 43.007 0 0 1 346.582 38.428 Q 346.875 35.938 347.217 33.447 Q 347.559 30.957 347.852 28.467 A 43.859 43.859 0 0 0 348.145 23.34 A 3.371 3.371 0 0 0 348.093 22.769 Q 348.047 22.504 347.962 22.216 A 6.079 6.079 0 0 0 347.9 22.021 Q 347.656 21.289 346.68 21.289 A 13.018 13.018 0 0 0 346.166 21.298 Q 345.325 21.332 345.02 21.484 A 1.578 1.578 0 0 0 344.775 21.634 Q 344.645 21.732 344.56 21.847 A 0.849 0.849 0 0 0 344.482 21.973 A 2.141 2.141 0 0 1 344.359 22.186 Q 344.289 22.293 344.197 22.41 A 5.347 5.347 0 0 1 343.994 22.656 A 1.314 1.314 0 0 1 343.754 22.864 Q 343.477 23.057 342.997 23.249 A 9.145 9.145 0 0 1 342.48 23.438 Z M 347.607 0.977 A 2.13 2.13 0 0 0 347.403 1.47 Q 347.266 1.955 347.266 2.637 A 6.485 6.485 0 0 0 347.267 2.751 Q 347.278 3.372 347.409 3.804 A 1.806 1.806 0 0 0 347.607 4.248 Q 347.872 4.663 348.691 4.758 A 4.645 4.645 0 0 0 349.219 4.785 A 1.968 1.968 0 0 0 349.607 4.749 A 1.153 1.153 0 0 0 350.439 4.15 A 2.769 2.769 0 0 0 350.716 3.359 A 3.797 3.797 0 0 0 350.781 2.637 Q 350.781 1.66 350.439 1.025 Q 350.098 0.391 349.219 0.391 A 4.887 4.887 0 0 0 348.959 0.397 Q 347.913 0.453 347.607 0.977 Z" id="8" vector-effect="non-scaling-stroke"/><path d="M 358.606 72.607 A 53.995 53.995 0 0 0 358.594 73.73 A 19.765 19.765 0 0 0 358.618 74.686 Q 358.697 76.313 359.033 78.369 A 38.56 38.56 0 0 0 359.351 80.067 A 44.874 44.874 0 0 0 360.352 83.936 Q 361.23 86.816 362.5 89.648 Q 363.77 92.48 365.479 94.727 A 19.117 19.117 0 0 0 366.58 96.049 A 15.669 15.669 0 0 0 369.238 98.389 A 9.183 9.183 0 0 0 369.431 98.518 A 7.543 7.543 0 0 0 373.633 99.805 A 7.194 7.194 0 0 0 378.076 98.291 Q 380.078 96.777 381.592 94.336 A 31.152 31.152 0 0 0 382.372 93.004 A 35.768 35.768 0 0 0 384.277 88.965 A 59.305 59.305 0 0 0 386.279 83.105 A 85.814 85.814 0 0 0 386.861 80.949 A 71.34 71.34 0 0 0 387.646 77.539 Q 388.184 74.902 388.574 73.34 A 255.129 255.129 0 0 1 388.444 65.245 A 239.976 239.976 0 0 1 388.477 61.279 A 686.622 686.622 0 0 1 388.77 49.561 L 389.16 37.939 A 350.296 350.296 0 0 0 389.355 26.172 Q 389.355 24.512 389.111 23.73 A 0.83 0.83 0 0 0 388.759 23.282 Q 388.256 22.949 387.109 22.949 A 1.991 1.991 0 0 0 386.73 22.984 A 1.435 1.435 0 0 0 386.133 23.242 A 6.828 6.828 0 0 0 385.4 23.877 A 13.345 13.345 0 0 1 385.31 23.967 A 11.99 11.99 0 0 1 384.717 24.512 Q 384.375 24.805 383.789 24.805 A 4.527 4.527 0 0 1 381.738 24.316 A 4.451 4.451 0 0 0 380.688 23.95 A 5.623 5.623 0 0 0 379.492 23.828 A 10.971 10.971 0 0 0 376.743 24.176 A 12.278 12.278 0 0 0 373.145 25.781 Q 370.117 27.734 367.871 30.762 A 28.252 28.252 0 0 0 364.258 37.256 A 25.001 25.001 0 0 0 364.238 37.307 Q 362.891 40.745 362.891 43.75 Q 362.891 45.02 362.988 46.338 Q 363.086 47.656 363.525 48.73 A 4.044 4.044 0 0 0 364.893 50.488 Q 365.53 50.958 366.514 51.105 A 6.556 6.556 0 0 0 367.48 51.172 A 9.737 9.737 0 0 0 369.449 50.971 A 10.994 10.994 0 0 0 372.461 49.854 A 36.691 36.691 0 0 0 377.051 46.924 Q 378.259 46.017 379.282 45.188 A 51.284 51.284 0 0 0 380.762 43.945 A 16.719 16.719 0 0 1 381.117 43.643 Q 382.041 42.879 382.613 42.663 A 1.142 1.142 0 0 1 383.008 42.578 L 383.154 42.627 A 1.261 1.261 0 0 0 383.245 42.654 Q 383.288 42.665 383.326 42.67 A 0.505 0.505 0 0 0 383.398 42.676 Q 384.863 47.07 385.01 51.709 A 292.371 292.371 0 0 1 385.156 60.938 L 385.156 63.037 A 71.234 71.234 0 0 1 385.107 65.674 Q 385.077 66.498 385.065 67.188 A 47.23 47.23 0 0 0 385.059 67.969 L 385.059 69.043 A 13.084 13.084 0 0 1 385.046 69.594 Q 384.997 70.738 384.766 72.705 Q 384.615 73.989 384.386 75.429 A 94.728 94.728 0 0 1 383.887 78.271 Q 383.301 81.348 382.324 84.57 A 46.511 46.511 0 0 1 381.551 86.905 A 37.649 37.649 0 0 1 380.078 90.43 A 18.609 18.609 0 0 1 378.88 92.564 A 13.864 13.864 0 0 1 377.1 94.775 A 7.014 7.014 0 0 1 376.499 95.312 A 5.122 5.122 0 0 1 373.242 96.484 A 7.451 7.451 0 0 1 372.274 96.42 A 8.974 8.974 0 0 1 370.801 96.094 Q 369.531 95.703 368.848 94.629 A 99.957 99.957 0 0 1 368.331 93.712 Q 368.058 93.223 367.757 92.672 A 205.66 205.66 0 0 1 366.992 91.26 A 77.204 77.204 0 0 1 366.724 90.756 A 85.144 85.144 0 0 1 364.893 87.061 A 63.25 63.25 0 0 1 363.037 82.666 A 18.836 18.836 0 0 1 362.541 81.173 A 15.363 15.363 0 0 1 362.012 78.418 A 7.355 7.355 0 0 1 361.985 78.205 Q 361.922 77.649 361.859 76.545 A 99.864 99.864 0 0 1 361.816 75.732 A 198.419 198.419 0 0 0 361.765 74.722 A 221.113 221.113 0 0 0 361.572 71.582 A 244.1 244.1 0 0 1 361.438 69.482 A 211.246 211.246 0 0 1 361.328 67.48 A 182.52 182.52 0 0 1 361.313 67.178 Q 361.23 65.465 361.23 64.746 A 4.881 4.881 0 0 0 361.032 64.879 A 3.994 3.994 0 0 0 359.668 66.504 A 9.464 9.464 0 0 0 359.413 67.124 A 10.792 10.792 0 0 0 358.936 68.848 Q 358.691 70.117 358.643 71.387 A 69.424 69.424 0 0 0 358.606 72.607 Z M 366.668 46.535 A 0.725 0.725 0 0 0 366.748 46.631 Q 367.188 47.07 368.945 47.07 A 7.289 7.289 0 0 0 370.824 46.809 Q 372.086 46.472 373.486 45.703 Q 375.977 44.336 378.223 42.285 A 22.248 22.248 0 0 0 381.389 38.727 A 20.226 20.226 0 0 0 381.982 37.842 A 11.983 11.983 0 0 0 382.844 36.237 Q 383.241 35.327 383.397 34.472 A 6.008 6.008 0 0 0 383.496 33.398 A 14.202 14.202 0 0 0 383.419 31.868 Q 383.266 30.465 382.813 29.492 Q 382.129 28.027 379.492 28.027 A 8.801 8.801 0 0 0 375.298 29.112 A 11.053 11.053 0 0 0 374.414 29.639 Q 371.973 31.25 370.166 33.74 A 21.219 21.219 0 0 0 367.334 39.111 A 19.335 19.335 0 0 0 366.615 41.632 Q 366.328 43.004 366.31 44.261 A 11.737 11.737 0 0 0 366.309 44.434 Q 366.309 46.023 366.668 46.535 Z" id="9" vector-effect="non-scaling-stroke"/><path d="M 391.895 53.809 L 391.895 52.783 A 24.842 24.842 0 0 0 391.875 51.83 A 30.02 30.02 0 0 0 391.846 51.221 A 28.653 28.653 0 0 1 391.804 50.221 A 23.665 23.665 0 0 1 391.797 49.658 L 391.797 48.535 A 43.684 43.684 0 0 1 391.946 45.011 A 53.993 53.993 0 0 1 392.188 42.676 Q 392.578 39.551 393.359 36.572 A 32.971 32.971 0 0 1 395.459 30.811 A 18.64 18.64 0 0 1 398.35 26.395 A 17.449 17.449 0 0 1 398.779 25.928 A 15.862 15.862 0 0 1 403.418 22.559 A 12.709 12.709 0 0 1 407.191 21.443 A 16.422 16.422 0 0 1 409.473 21.289 A 6.099 6.099 0 0 1 410.831 21.431 Q 411.755 21.642 412.424 22.168 A 3.601 3.601 0 0 1 412.891 22.607 A 6.829 6.829 0 0 1 414.217 24.886 A 8.606 8.606 0 0 1 414.502 25.879 A 20.519 20.519 0 0 1 414.972 29.446 A 23.012 23.012 0 0 1 414.99 29.98 Q 415.039 32.129 415.039 33.789 A 41.192 41.192 0 0 1 414.635 39.44 A 48.286 48.286 0 0 1 414.258 41.748 A 28.899 28.899 0 0 1 412.722 47.109 A 25.272 25.272 0 0 1 411.719 49.316 A 15.941 15.941 0 0 1 406.885 54.98 A 11.436 11.436 0 0 1 402.259 56.949 A 15.904 15.904 0 0 1 399.219 57.227 A 32.439 32.439 0 0 1 398.248 57.213 Q 397.771 57.199 397.354 57.169 A 16.17 16.17 0 0 1 396.875 57.129 A 4.671 4.671 0 0 1 395.677 56.854 A 4.129 4.129 0 0 1 395.117 56.592 A 10.587 10.587 0 0 1 394.043 55.895 A 12.629 12.629 0 0 1 393.555 55.518 Q 392.773 54.883 391.895 53.809 Z M 395.313 52.051 A 3.063 3.063 0 0 0 396.217 52.689 A 2.753 2.753 0 0 0 397.363 52.93 L 399.609 52.93 A 11.834 11.834 0 0 0 402.25 52.651 A 8.24 8.24 0 0 0 405.664 51.025 A 13.171 13.171 0 0 0 409.326 46.289 A 22.701 22.701 0 0 0 410.942 41.383 A 26.28 26.28 0 0 0 411.182 40.088 A 44.376 44.376 0 0 0 411.616 36.437 A 35.293 35.293 0 0 0 411.719 33.789 A 87.254 87.254 0 0 1 411.731 32.361 A 111.677 111.677 0 0 1 411.768 30.811 A 13.198 13.198 0 0 0 411.774 30.411 Q 411.774 29.369 411.605 28.412 A 10.213 10.213 0 0 0 411.475 27.783 A 5.669 5.669 0 0 0 410.999 26.489 A 4.62 4.62 0 0 0 410.254 25.439 A 2.764 2.764 0 0 0 409.072 24.716 Q 408.628 24.572 408.089 24.53 A 6.003 6.003 0 0 0 407.617 24.512 A 10.056 10.056 0 0 1 407.586 25.329 Q 407.52 26.142 407.31 26.668 A 2.421 2.421 0 0 1 407.227 26.855 A 2.856 2.856 0 0 1 406.899 27.373 Q 406.598 27.747 406.201 27.93 A 3.632 3.632 0 0 1 405.379 28.192 A 4.766 4.766 0 0 1 404.736 28.271 A 6.607 6.607 0 0 0 403.716 28.416 A 8.395 8.395 0 0 0 402.979 28.613 A 6.95 6.95 0 0 0 401.503 29.283 A 7.983 7.983 0 0 0 401.172 29.492 A 3.279 3.279 0 0 0 400.515 30.084 Q 400.244 30.398 399.995 30.813 A 7.94 7.94 0 0 0 399.609 31.543 A 1689.12 1689.12 0 0 0 397.348 37.943 A 1490.136 1490.136 0 0 0 396.631 39.99 A 25.718 25.718 0 0 0 395.215 48.535 L 395.215 49.268 A 9.486 9.486 0 0 0 395.222 49.618 Q 395.229 49.811 395.243 50.026 A 17.292 17.292 0 0 0 395.264 50.293 A 16.349 16.349 0 0 1 395.293 50.712 Q 395.313 51.044 395.313 51.318 L 395.313 52.051 Z" id="10" vector-effect="non-scaling-stroke"/><path d="M 421.777 54.102 L 421.777 53.809 Q 422.754 49.902 423.193 46.729 A 70.01 70.01 0 0 0 423.77 40.717 A 64.527 64.527 0 0 0 423.779 40.527 A 96.189 96.189 0 0 0 423.887 36.428 Q 423.894 35.321 423.877 34.18 A 427.422 427.422 0 0 1 423.842 30.874 Q 423.83 29.139 423.828 27.214 A 707.704 707.704 0 0 1 423.828 26.66 Q 422.266 26.66 421.533 26.855 A 5.723 5.723 0 0 0 421.175 26.963 Q 420.829 27.08 420.622 27.212 A 1.123 1.123 0 0 0 420.508 27.295 A 1.492 1.492 0 0 0 420.302 27.501 Q 420.179 27.653 420.121 27.821 A 0.952 0.952 0 0 0 420.117 27.832 A 1.314 1.314 0 0 1 419.882 28.252 A 1.614 1.614 0 0 1 419.775 28.369 A 0.988 0.988 0 0 1 419.595 28.508 Q 419.398 28.629 419.079 28.737 A 5.143 5.143 0 0 1 418.848 28.809 A 3.718 3.718 0 0 1 418.401 28.903 Q 417.752 29.004 416.699 29.004 Q 415.82 29.004 415.43 28.32 Q 415.039 27.637 415.039 26.758 Q 415.039 26.025 415.941 25.206 A 5.802 5.802 0 0 1 416.064 25.098 Q 417.09 24.219 418.506 23.34 A 17.585 17.585 0 0 1 421.436 21.875 Q 422.483 21.469 423.32 21.345 A 4.777 4.777 0 0 1 424.023 21.289 A 1.286 1.286 0 0 1 424.27 21.316 Q 424.531 21.368 424.891 21.517 A 6.754 6.754 0 0 1 425.146 21.631 A 7.161 7.161 0 0 1 426.385 22.375 A 8.079 8.079 0 0 1 426.563 22.51 A 6.902 6.902 0 0 1 427.22 23.094 A 5.329 5.329 0 0 1 427.686 23.633 Q 428.1 24.185 428.124 24.737 A 1.564 1.564 0 0 1 428.125 24.805 L 428.125 38.379 A 22.302 22.302 0 0 1 428.687 37.579 Q 429.341 36.686 430.307 35.506 A 92.789 92.789 0 0 1 431.25 34.375 A 60.226 60.226 0 0 1 434.747 30.594 A 68.641 68.641 0 0 1 436.035 29.346 A 44.639 44.639 0 0 1 440.003 25.999 A 38.908 38.908 0 0 1 441.406 25 A 14.542 14.542 0 0 1 443.056 24.023 Q 443.92 23.591 444.716 23.371 A 5.92 5.92 0 0 1 446.289 23.145 A 7.032 7.032 0 0 1 447.798 23.295 Q 448.728 23.5 449.401 23.982 A 3.646 3.646 0 0 1 450.391 25.049 A 7.573 7.573 0 0 1 451.322 27.409 Q 451.532 28.365 451.559 29.467 A 13.314 13.314 0 0 1 451.562 29.785 Q 450.391 29.785 449.707 29.395 Q 449.023 29.004 448.486 28.516 A 6.752 6.752 0 0 0 447.527 27.785 A 6.152 6.152 0 0 0 447.363 27.686 Q 446.904 27.418 446.206 27.36 A 4.897 4.897 0 0 0 445.801 27.344 Q 442.676 27.93 439.941 30.469 A 32.518 32.518 0 0 0 436.087 34.772 A 37.977 37.977 0 0 0 434.912 36.426 A 55.986 55.986 0 0 0 430.811 43.652 A 294.662 294.662 0 0 0 429.114 47.29 A 214.631 214.631 0 0 0 427.637 50.586 Q 426.414 53.381 425.621 55.239 A 275.494 275.494 0 0 0 425.439 55.664 Q 424.645 57.533 424.432 57.256 A 0.18 0.18 0 0 1 424.414 57.227 A 2.094 2.094 0 0 1 423.237 56.855 Q 422.943 56.66 422.665 56.362 A 4.155 4.155 0 0 1 422.607 56.299 Q 421.777 55.371 421.777 54.102 Z" id="11" vector-effect="non-scaling-stroke"/><path d="M 451.66 59.766 L 451.66 60.547 A 37.521 37.521 0 0 1 451.221 66.309 A 2249.854 2249.854 0 0 0 450.342 72.021 A 2364.499 2364.499 0 0 0 449.463 77.832 A 39.447 39.447 0 0 0 449.023 83.691 A 25.546 25.546 0 0 0 449.033 84.341 Q 449.051 85.078 449.109 86.087 A 104.932 104.932 0 0 0 449.17 87.061 A 96.234 96.234 0 0 0 449.353 89.368 A 127.195 127.195 0 0 0 449.609 91.895 A 56.001 56.001 0 0 0 450.346 96.621 A 62.235 62.235 0 0 0 450.488 97.314 A 28.797 28.797 0 0 0 451.271 100.276 A 23.001 23.001 0 0 0 452.051 102.344 A 14.751 14.751 0 0 0 453.016 104.209 Q 453.607 105.168 454.302 105.908 A 9.114 9.114 0 0 0 454.395 106.006 A 4.749 4.749 0 0 0 455.777 107.019 A 4.246 4.246 0 0 0 457.617 107.422 A 8.468 8.468 0 0 0 460.79 106.781 A 11.693 11.693 0 0 0 462.744 105.762 A 22.103 22.103 0 0 0 465.748 103.429 A 28.112 28.112 0 0 0 467.725 101.416 A 40.113 40.113 0 0 0 471.121 97.003 A 46.26 46.26 0 0 0 472.168 95.361 A 108.429 108.429 0 0 0 475.977 88.574 Q 477.734 85.156 478.906 82.08 Q 479.803 79.725 480.357 77.856 A 34.704 34.704 0 0 0 480.664 76.758 A 378.622 378.622 0 0 0 481.25 73.45 A 438.467 438.467 0 0 0 481.836 69.971 A 352.518 352.518 0 0 0 482.959 62.646 Q 483.496 58.887 483.838 55.176 A 80.879 80.879 0 0 0 484.18 47.754 L 484.18 47.168 Q 484.18 46.68 484.131 46.143 Q 484.082 45.605 484.082 45.117 L 484.082 44.434 Q 482.715 45.898 481.201 47.705 Q 479.688 49.512 477.93 51.074 A 19.594 19.594 0 0 1 474.17 53.711 A 9.047 9.047 0 0 1 469.824 54.785 A 4.885 4.885 0 0 1 467.98 54.445 A 4.559 4.559 0 0 1 466.65 53.613 A 9.007 9.007 0 0 1 464.717 51.151 A 10.439 10.439 0 0 1 464.502 50.732 A 16.781 16.781 0 0 1 463.232 47.07 Q 462.839 45.323 462.798 43.889 A 11.56 11.56 0 0 1 462.793 43.555 A 16.868 16.868 0 0 1 462.746 43.046 Q 462.689 42.337 462.632 41.151 A 147.944 147.944 0 0 1 462.598 40.381 A 319.261 319.261 0 0 0 462.488 38.013 A 382.674 382.674 0 0 0 462.354 35.498 Q 462.207 32.91 462.061 30.615 A 135.664 135.664 0 0 1 461.996 29.55 Q 461.914 28.076 461.914 27.344 L 461.035 26.465 A 11.519 11.519 0 0 0 460.57 26.747 Q 460.053 27.076 459.375 27.566 A 39.873 39.873 0 0 0 459.277 27.637 A 23.018 23.018 0 0 1 456.982 29.102 A 34.349 34.349 0 0 1 455.179 30.045 A 30.378 30.378 0 0 1 454.59 30.322 A 7.438 7.438 0 0 1 453.819 30.628 Q 453.423 30.758 453.068 30.815 A 3.347 3.347 0 0 1 452.539 30.859 A 2.689 2.689 0 0 1 451.598 30.7 A 2.372 2.372 0 0 1 450.635 30.029 A 3.121 3.121 0 0 1 450.141 29.289 A 2.488 2.488 0 0 1 449.902 28.223 A 0.764 0.764 0 0 1 449.972 27.926 Q 450.138 27.536 450.704 26.977 A 8.517 8.517 0 0 1 450.83 26.855 A 13.228 13.228 0 0 1 451.735 26.077 Q 452.217 25.697 452.785 25.309 A 23.933 23.933 0 0 1 453.174 25.049 A 38.558 38.558 0 0 1 454.688 24.109 A 51.509 51.509 0 0 1 456.396 23.145 A 74.501 74.501 0 0 1 458.598 22 A 62.867 62.867 0 0 1 459.863 21.387 A 60.258 60.258 0 0 1 461.403 20.687 Q 462.186 20.345 462.891 20.068 A 15.867 15.867 0 0 1 463.507 19.84 Q 464.4 19.531 464.844 19.531 A 4.814 4.814 0 0 1 465.07 19.537 Q 465.328 19.55 465.71 19.587 A 29.216 29.216 0 0 1 466.113 19.629 Q 466.906 19.717 466.984 20.362 A 1.225 1.225 0 0 1 466.992 20.508 L 466.992 43.555 Q 466.992 44.141 467.188 45.264 A 15.491 15.491 0 0 0 467.634 47.121 A 17.534 17.534 0 0 0 467.773 47.559 A 6.826 6.826 0 0 0 468.301 48.761 A 5.544 5.544 0 0 0 468.848 49.561 A 2.722 2.722 0 0 0 469.317 50.016 A 1.79 1.79 0 0 0 470.41 50.391 A 2.182 2.182 0 0 0 470.762 50.359 Q 471.125 50.299 471.602 50.126 A 7.849 7.849 0 0 0 471.68 50.098 Q 472.461 49.805 473.193 49.414 A 10.917 10.917 0 0 0 474.052 48.907 A 9.049 9.049 0 0 0 474.512 48.584 Q 474.983 48.23 475.328 47.908 A 6.451 6.451 0 0 0 475.488 47.754 A 46.705 46.705 0 0 0 481.592 41.211 Q 484.375 37.598 485.742 33.301 A 4.103 4.103 0 0 0 485.792 33.138 Q 485.87 32.866 485.999 32.333 A 66.868 66.868 0 0 0 486.084 31.982 A 56.047 56.047 0 0 0 486.328 30.908 A 71.914 71.914 0 0 0 486.572 29.736 Q 486.816 28.516 487.109 27.393 A 14.93 14.93 0 0 0 487.238 26.865 Q 487.402 26.123 487.402 25.684 A 15.094 15.094 0 0 0 487.483 25 Q 487.523 24.588 487.549 24.121 A 9.827 9.827 0 0 1 487.793 22.412 A 3.673 3.673 0 0 1 488.105 21.556 A 3.115 3.115 0 0 1 488.477 20.996 A 1.504 1.504 0 0 1 489.161 20.539 Q 489.536 20.41 490.039 20.41 Q 491.504 20.41 491.65 21.289 Q 491.797 22.168 491.797 23.34 A 16.675 16.675 0 0 1 491.602 25.879 Q 491.406 27.148 491.162 28.369 A 20.964 20.964 0 0 0 490.82 30.811 A 10.269 10.269 0 0 0 490.788 31.63 A 10.977 10.977 0 0 0 490.918 33.301 Q 489.844 51.66 486.377 66.113 A 162.067 162.067 0 0 1 483.351 77.107 Q 480.986 84.593 478.174 90.479 Q 474.846 97.443 471.277 102.021 A 33.643 33.643 0 0 1 468.213 105.469 A 23.731 23.731 0 0 1 465.574 107.708 Q 462.255 110.101 459.209 110.101 A 7.653 7.653 0 0 1 458.398 110.059 A 7.779 7.779 0 0 1 455.329 109.415 A 8.999 8.999 0 0 1 455.127 109.326 A 11.132 11.132 0 0 1 452.159 107.334 A 12.773 12.773 0 0 1 452.148 107.324 A 16.152 16.152 0 0 1 449.756 104.541 A 12.467 12.467 0 0 1 448.663 102.582 A 10.61 10.61 0 0 1 448.242 101.465 A 123.554 123.554 0 0 1 447.473 95.679 A 141.794 141.794 0 0 1 447.266 93.652 A 189.195 189.195 0 0 1 446.943 89.82 Q 446.796 87.856 446.666 85.665 A 330.31 330.31 0 0 1 446.582 84.18 A 49.124 49.124 0 0 1 446.585 83.67 Q 446.593 82.892 446.623 81.609 A 349.62 349.62 0 0 1 446.631 81.299 Q 446.68 79.297 446.875 76.807 A 76.4 76.4 0 0 1 447.278 72.961 A 86.489 86.489 0 0 1 447.461 71.631 A 70.662 70.662 0 0 1 448.098 67.922 A 60.651 60.651 0 0 1 448.389 66.553 A 28.22 28.22 0 0 1 448.946 64.438 Q 449.27 63.384 449.655 62.474 A 17.157 17.157 0 0 1 449.707 62.354 A 8.243 8.243 0 0 1 450.29 61.233 Q 450.891 60.278 451.66 59.766 Z" id="12" vector-effect="non-scaling-stroke"/><path d="M 516.589 47.021 A 56.58 56.58 0 0 0 518.164 45.215 A 100.156 100.156 0 0 1 518.555 47.058 A 129.317 129.317 0 0 1 518.945 49.072 A 17.655 17.655 0 0 0 519.168 50.101 A 15.179 15.179 0 0 0 520.166 52.93 A 9.786 9.786 0 0 0 522.363 55.957 A 4.583 4.583 0 0 0 524.416 57.048 A 6.465 6.465 0 0 0 525.977 57.227 A 13.027 13.027 0 0 0 528.312 57.012 A 15.806 15.806 0 0 0 531.396 56.104 A 19.011 19.011 0 0 0 536.426 53.125 Q 538.672 51.27 540.137 48.877 A 11.136 11.136 0 0 0 540.845 47.527 A 8.624 8.624 0 0 0 541.602 44.043 L 541.602 43.555 L 541.602 43.262 Q 540.674 43.555 539.917 43.945 A 7.362 7.362 0 0 0 538.574 44.824 Q 537.402 45.801 536.475 46.875 Q 535.547 47.949 534.717 49.023 A 9.855 9.855 0 0 1 532.764 50.928 A 9.916 9.916 0 0 1 531.706 51.607 A 12.429 12.429 0 0 1 530.127 52.344 A 7.157 7.157 0 0 1 529.283 52.609 Q 528.625 52.774 527.847 52.854 A 15.44 15.44 0 0 1 526.27 52.93 Q 525.293 52.93 524.707 52.002 A 7.173 7.173 0 0 1 524.241 51.134 A 8.908 8.908 0 0 1 523.779 49.854 Q 523.438 48.633 523.291 47.412 A 35.555 35.555 0 0 1 523.229 46.862 Q 523.172 46.318 523.154 45.938 A 6.845 6.845 0 0 1 523.145 45.605 Q 523.145 42.969 523.535 40.43 Q 523.926 37.891 524.316 35.303 Q 524.707 32.715 525.098 30.078 Q 525.488 27.441 525.488 24.805 Q 523.979 22.876 521.714 23.035 A 5.643 5.643 0 0 0 520.947 23.145 A 11.69 11.69 0 0 0 519.521 23.545 Q 517.333 24.305 514.844 26.025 Q 511.523 28.32 508.203 31.787 Q 504.883 35.254 502.148 38.965 A 58.99 58.99 0 0 0 499.67 42.59 A 43.738 43.738 0 0 0 497.705 46.045 A 28.219 28.219 0 0 0 497.349 46.772 Q 495.996 49.64 495.996 51.465 A 7.86 7.86 0 0 0 496.088 52.705 Q 496.687 56.445 501.172 56.445 A 11.484 11.484 0 0 0 506.104 55.322 Q 508.496 54.199 510.693 52.539 A 36.181 36.181 0 0 0 514.795 48.926 A 73.635 73.635 0 0 0 516.589 47.021 Z M 520.689 28.257 A 2.165 2.165 0 0 0 520.654 28.027 Q 520.43 26.95 519.422 27.069 A 2.121 2.121 0 0 0 519.238 27.1 Q 518.26 27.304 516.804 28.325 A 18.404 18.404 0 0 0 516.211 28.76 A 45.208 45.208 0 0 0 514.345 30.269 Q 513.315 31.145 512.207 32.178 A 59.893 59.893 0 0 0 509.119 35.283 A 69.803 69.803 0 0 0 507.91 36.621 Q 505.762 39.063 503.906 41.26 A 59.265 59.265 0 0 0 502.611 42.846 Q 501.986 43.64 501.466 44.367 A 31.015 31.015 0 0 0 500.879 45.215 A 37.27 37.27 0 0 0 500.363 46.009 Q 499.636 47.162 499.414 47.754 A 12.629 12.629 0 0 0 499.223 48.595 Q 498.914 50.23 499.268 51.172 A 3.557 3.557 0 0 0 499.646 51.92 A 2.448 2.448 0 0 0 500.635 52.783 A 2.731 2.731 0 0 0 501.818 53.047 Q 502.119 53.047 502.435 52.986 A 3.874 3.874 0 0 0 502.686 52.93 Q 503.809 52.637 504.59 52.051 A 65.021 65.021 0 0 0 505.475 51.254 Q 506.686 50.145 508.263 48.61 A 204.144 204.144 0 0 0 508.789 48.096 Q 511.328 45.605 513.721 42.773 A 53.864 53.864 0 0 0 516.588 39.077 A 45.071 45.071 0 0 0 517.871 37.158 Q 519.567 34.472 519.9 32.559 A 6.051 6.051 0 0 0 519.922 32.422 Q 520.81 29.491 520.689 28.257 Z" id="13" vector-effect="non-scaling-stroke"/><path d="M 546.68 56.348 L 546.68 50.293 Q 546.875 49.512 547.266 47.705 A 179.88 179.88 0 0 0 547.668 45.789 A 247.656 247.656 0 0 0 548.096 43.652 A 204.299 204.299 0 0 0 548.535 41.333 A 244.04 244.04 0 0 0 548.975 38.867 A 244.04 244.04 0 0 1 549.414 36.401 A 204.299 204.299 0 0 1 549.854 34.082 A 132.678 132.678 0 0 0 550.256 31.934 A 98.707 98.707 0 0 0 550.586 29.98 Q 550.868 28.194 550.969 27.313 A 19.313 19.313 0 0 0 550.977 27.246 A 1.474 1.474 0 0 0 551.009 27.064 Q 551.054 26.691 550.977 26.074 Q 550.88 25.305 550.784 24.347 A 98.625 98.625 0 0 1 550.781 24.316 A 85.276 85.276 0 0 0 550.685 23.402 Q 550.637 22.969 550.589 22.583 A 51.459 51.459 0 0 0 550.586 22.559 Q 550.507 21.926 550.492 21.55 A 4.103 4.103 0 0 1 550.488 21.387 Q 550.195 21.387 549.512 21.191 A 18.011 18.011 0 0 0 548.096 20.85 A 33.488 33.488 0 0 1 547.4 20.703 A 24.365 24.365 0 0 1 546.777 20.557 A 8.355 8.355 0 0 0 546.503 20.493 Q 546.118 20.41 545.898 20.41 A 12.149 12.149 0 0 0 544.431 21.066 Q 543.721 21.447 543.177 21.887 A 5.611 5.611 0 0 0 542.432 22.607 Q 541.309 23.926 540.381 25.195 Q 539.453 26.465 538.184 27.393 A 4.182 4.182 0 0 1 536.986 27.985 Q 536.415 28.168 535.717 28.251 A 10.535 10.535 0 0 1 534.473 28.32 Q 533.594 28.32 533.203 27.637 Q 532.813 26.953 532.813 26.074 L 532.813 25.684 A 67.893 67.893 0 0 1 534.773 23.545 Q 535.719 22.559 536.611 21.721 A 40.886 40.886 0 0 1 536.865 21.484 Q 538.77 19.727 540.918 18.506 Q 543.066 17.285 545.605 16.699 A 21.589 21.589 0 0 1 548.158 16.279 Q 549.701 16.113 551.465 16.113 Q 552.888 16.113 553.62 16.62 A 1.93 1.93 0 0 1 553.662 16.65 A 3.534 3.534 0 0 1 554.785 18.018 A 4.537 4.537 0 0 1 555.14 19.151 A 5.847 5.847 0 0 1 555.225 19.922 A 45.752 45.752 0 0 1 555.261 21.045 A 58.676 58.676 0 0 1 555.273 22.266 A 25.643 25.643 0 0 1 554.736 27.49 Q 554.199 30.078 553.564 32.666 Q 552.93 35.254 552.344 37.842 A 24.027 24.027 0 0 0 551.758 43.164 L 551.758 43.555 A 8.134 8.134 0 0 1 551.947 43.1 Q 552.295 42.322 553.027 40.967 A 306.913 306.913 0 0 0 554.028 39.099 A 367.281 367.281 0 0 0 555.078 37.109 A 141.512 141.512 0 0 1 556.14 35.12 A 120.295 120.295 0 0 1 557.178 33.252 Q 558.021 31.766 558.435 31.04 A 306.573 306.573 0 0 1 558.594 30.762 Q 558.677 30.679 559.114 30.136 A 94.693 94.693 0 0 0 559.277 29.932 A 56.257 56.257 0 0 1 559.751 29.348 Q 559.963 29.091 560.198 28.809 A 103.489 103.489 0 0 1 560.693 28.223 A 99.456 99.456 0 0 1 562.354 26.318 Q 563.184 25.391 563.77 24.805 Q 564.353 24.026 565.179 23.151 A 21.377 21.377 0 0 1 565.186 23.145 A 21.191 21.191 0 0 1 566.943 21.484 Q 567.871 20.703 568.896 20.166 A 4.656 4.656 0 0 1 570.296 19.687 A 4.252 4.252 0 0 1 570.996 19.629 A 1.782 1.782 0 0 1 571.56 19.713 A 1.407 1.407 0 0 1 572.314 20.313 A 4.162 4.162 0 0 1 572.722 21.148 A 5.696 5.696 0 0 1 572.949 21.973 A 10.183 10.183 0 0 1 573.145 23.975 L 573.145 25.684 Q 573.145 28.613 572.461 31.543 A 168.391 168.391 0 0 1 570.996 37.354 A 302.671 302.671 0 0 0 569.482 43.164 A 24.078 24.078 0 0 0 568.75 49.023 A 6.871 6.871 0 0 0 568.812 49.973 Q 568.882 50.473 569.03 50.894 A 3.771 3.771 0 0 0 569.141 51.172 A 1.357 1.357 0 0 0 569.979 51.917 Q 570.241 52.008 570.572 52.037 A 3.718 3.718 0 0 0 570.898 52.051 A 5.688 5.688 0 0 0 574.121 51.074 A 29.647 29.647 0 0 0 576.904 48.975 A 49.607 49.607 0 0 1 579.52 46.89 A 44.474 44.474 0 0 1 579.541 46.875 A 4.878 4.878 0 0 1 582.52 45.898 L 582.52 47.754 A 0.123 0.123 0 0 1 582.501 47.807 Q 582.438 47.922 582.159 48.21 A 11.332 11.332 0 0 1 582.031 48.34 L 580.859 49.512 A 57.116 57.116 0 0 1 579.443 50.879 A 70.373 70.373 0 0 0 578.928 51.364 Q 578.528 51.746 578.223 52.051 A 45.366 45.366 0 0 1 577.393 52.759 A 59.961 59.961 0 0 1 576.465 53.516 A 20.36 20.36 0 0 1 574.463 54.932 A 12.501 12.501 0 0 1 572.266 56.006 A 7.159 7.159 0 0 1 571.048 56.349 A 5.679 5.679 0 0 1 570.02 56.445 A 4.223 4.223 0 0 1 568.938 56.314 A 3.137 3.137 0 0 1 567.627 55.615 A 5.375 5.375 0 0 1 566.242 53.64 A 6.205 6.205 0 0 1 566.211 53.564 A 11.21 11.21 0 0 1 565.527 50.977 Q 565.332 49.609 565.332 48.535 Q 565.332 45.605 565.869 42.725 Q 566.406 39.844 566.992 37.061 A 155.519 155.519 0 0 0 568.066 31.445 A 33.849 33.849 0 0 0 568.555 25.684 L 567.969 25.684 Q 567.871 25.684 567.285 26.27 A 48.721 48.721 0 0 1 566.811 26.736 Q 566.388 27.148 565.869 27.637 A 25.981 25.981 0 0 0 564.258 29.297 A 47.836 47.836 0 0 1 563.699 29.915 Q 563.423 30.215 563.176 30.471 A 22.936 22.936 0 0 1 562.891 30.762 A 17.118 17.118 0 0 0 562.511 31.236 Q 562.285 31.527 562.042 31.863 A 31.403 31.403 0 0 0 561.816 32.178 A 27.262 27.262 0 0 0 561.084 33.273 A 32.333 32.333 0 0 0 560.645 33.984 A 142.406 142.406 0 0 0 559.589 35.773 A 129.887 129.887 0 0 0 559.521 35.889 A 37.295 37.295 0 0 0 559.021 36.78 A 27.443 27.443 0 0 0 558.594 37.598 A 17.797 17.797 0 0 1 558.423 37.982 Q 558.133 38.615 557.629 39.624 A 103.359 103.359 0 0 1 557.617 39.648 Q 556.979 40.925 556.213 42.542 A 215.063 215.063 0 0 0 556.104 42.773 A 1673.949 1673.949 0 0 1 555.249 44.58 A 1963.244 1963.244 0 0 1 554.346 46.484 A 1963.244 1963.244 0 0 0 553.442 48.389 A 1673.949 1673.949 0 0 0 552.588 50.195 A 188.489 188.489 0 0 1 551.842 51.757 Q 551.488 52.489 551.166 53.137 A 109.876 109.876 0 0 1 551.074 53.32 A 87.554 87.554 0 0 0 550.757 53.961 Q 550.317 54.858 550.098 55.371 A 0.948 0.948 0 0 1 550 55.603 Q 549.813 55.935 549.316 56.396 Q 548.633 57.031 548.438 57.129 L 548.242 57.227 L 547.949 57.227 L 547.754 57.227 Q 547.656 57.227 547.559 57.129 A 1.299 1.299 0 0 1 547.437 57.059 Q 547.267 56.949 547.021 56.738 A 4.243 4.243 0 0 1 546.905 56.635 Q 546.68 56.427 546.68 56.348 Z" id="14" vector-effect="non-scaling-stroke"/></g></svg>